<svg xmlns="http://www.w3.org/2000/svg" viewBox="0 0 1200 1540" width="100%" role="img" font-family="system-ui,-apple-system,'Segoe UI',Helvetica,Arial,sans-serif">
<title>PH Legal Skill v7.0 Repository Architecture</title>
<desc>Five-layer architecture diagram for ph-legal-skill-v3 at v7.0: Governance, Routing, Domain (Phases 1–14, 71 modules), Validation, and Release.</desc>
<defs>
<marker id="arr" viewBox="0 0 10 10" refX="8" refY="5" markerWidth="6" markerHeight="6" orient="auto-start-reverse"><path d="M1 1L8 5L1 9" fill="none" stroke="#5F5E5A" stroke-width="1.5" stroke-linecap="round"/></marker>
<marker id="arr-s" viewBox="0 0 10 10" refX="8" refY="5" markerWidth="5" markerHeight="5" orient="auto-start-reverse"><path d="M1 1L8 5L1 9" fill="none" stroke="#888780" stroke-width="1.5" stroke-linecap="round"/></marker>
</defs>
<rect width="1200" height="1540" fill="#F1EFE8"/>

<!-- ── HEADER ───────────────────────────────────────────────── -->
<rect width="1200" height="122" fill="#2C2C2A"/>
<text x="32" y="50" font-size="28" font-weight="700" fill="#F1EFE8" letter-spacing="-0.3">PH Legal Skill</text>
<text x="274" y="50" font-size="28" font-weight="300" fill="#FAC775"> v7.0</text>
<text x="32" y="76" font-size="12.5" fill="#888780">Repository Architecture · Phases 1–14 Production-Certified · Firm-Grade Hardening Complete</text>
<rect x="32" y="88" width="455" height="20" rx="3" fill="#444441"/>
<text x="40" y="102" font-size="9" fill="#888780" font-family="'Courier New',Courier,monospace">SHA256: </text>
<text x="90" y="102" font-size="9" fill="#FAC775" font-family="'Courier New',Courier,monospace">36eab24891ffbd1260172871e0575a2c01fc52732f750a1f4b81f5b017de36e9</text>

<!-- Metrics panel -->
<rect x="820" y="11" width="360" height="100" rx="10" fill="#444441"/>
<rect x="820" y="11" width="360" height="32" rx="10" fill="#2C2C2A"/>
<rect x="820" y="31" width="360" height="12" fill="#2C2C2A"/>
<text x="1000" y="30" text-anchor="middle" font-size="10" font-weight="700" fill="#888780" letter-spacing="2">PRODUCTION METRICS</text>
<circle cx="838" cy="51" r="4" fill="#378ADD"/><text x="850" y="56" font-size="12" font-weight="600" fill="#F1EFE8">71 Active Modules</text>
<circle cx="838" cy="71" r="4" fill="#378ADD"/><text x="850" y="76" font-size="12" font-weight="600" fill="#F1EFE8">100 Routing Rows · 0 Orphans</text>
<circle cx="838" cy="91" r="4" fill="#639922"/><text x="850" y="96" font-size="12" font-weight="600" fill="#F1EFE8">Phases 1–14 Complete</text>
<g transform="translate(1114,46)">
<path d="M30 4L34 15L46 16L37 24L40 36L30 30L20 36L23 24L14 16L26 15Z" fill="#EF9F27"/>
<text x="30" y="47" text-anchor="middle" font-size="8" font-weight="700" fill="#633806">CERTIFIED</text>
</g>

<!-- ── GOVERNANCE LAYER ────────────────────────────────────── -->
<rect x="0" y="138" width="1200" height="180" fill="#E5E3DA"/>
<rect x="0" y="138" width="5" height="180" fill="#378ADD"/>
<text x="600" y="160" text-anchor="middle" font-size="10" font-weight="700" fill="#5F5E5A" letter-spacing="2.5">GOVERNANCE LAYER</text>
<!-- FCP -->
<rect x="20" y="170" width="270" height="120" rx="8" fill="#FFFFFF" stroke="#D3D1C7" stroke-width="0.5"/>
<rect x="20" y="170" width="5" height="120" rx="2" fill="#EF9F27"/>
<text x="36" y="192" font-size="9.5" font-weight="700" fill="#BA7517">MASTER PACKET</text>
<text x="36" y="213" font-size="12" font-weight="700" fill="#2C2C2A">FINAL-CONTINUATION-</text>
<text x="36" y="228" font-size="12" font-weight="700" fill="#2C2C2A">PACKET.md</text>
<text x="36" y="249" font-size="9.5" fill="#5F5E5A">SHA256 baseline · phase map</text>
<text x="36" y="264" font-size="9.5" fill="#5F5E5A">continuation instructions</text>
<!-- README -->
<rect x="310" y="170" width="270" height="120" rx="8" fill="#FFFFFF" stroke="#D3D1C7" stroke-width="0.5"/>
<rect x="310" y="170" width="5" height="120" rx="2" fill="#378ADD"/>
<text x="326" y="192" font-size="9.5" font-weight="700" fill="#185FA5">ENTRY POINT</text>
<text x="326" y="213" font-size="13" font-weight="700" fill="#2C2C2A">README.md</text>
<text x="326" y="234" font-size="9.5" fill="#5F5E5A">v7.0 · 71 modules · phase history</text>
<text x="326" y="249" font-size="9.5" fill="#5F5E5A">domain coverage table</text>
<text x="326" y="264" font-size="9.5" fill="#5F5E5A">roadmap · depth standards</text>
<!-- CHANGELOG -->
<rect x="600" y="170" width="270" height="120" rx="8" fill="#FFFFFF" stroke="#D3D1C7" stroke-width="0.5"/>
<rect x="600" y="170" width="5" height="120" rx="2" fill="#7F77DD"/>
<text x="616" y="192" font-size="9.5" font-weight="700" fill="#534AB7">AUDIT TRAIL</text>
<text x="616" y="213" font-size="13" font-weight="700" fill="#2C2C2A">CHANGELOG.md</text>
<text x="616" y="234" font-size="9.5" fill="#5F5E5A">[v7.0] Phases 12–14 build log</text>
<text x="616" y="249" font-size="9.5" fill="#5F5E5A">doctrine fix · integrity disclosure</text>
<text x="616" y="264" font-size="9.5" fill="#5F5E5A">full history per phase</text>
<!-- architecture.md -->
<rect x="890" y="170" width="290" height="120" rx="8" fill="#FFFFFF" stroke="#D3D1C7" stroke-width="0.5"/>
<rect x="890" y="170" width="5" height="120" rx="2" fill="#1D9E75"/>
<text x="906" y="192" font-size="9.5" font-weight="700" fill="#0F6E56">STRUCTURE MAP</text>
<text x="906" y="213" font-size="13" font-weight="700" fill="#2C2C2A">architecture.md</text>
<text x="906" y="234" font-size="9.5" fill="#5F5E5A">v7.0 · domain ownership</text>
<text x="906" y="249" font-size="9.5" fill="#5F5E5A">repo tree · Phase 12–14 domains</text>
<text x="906" y="264" font-size="9.5" fill="#5F5E5A">drift prevention guidelines</text>

<!-- arrow: governance → routing -->
<line x1="600" y1="318" x2="600" y2="354" stroke="#888780" stroke-width="2" marker-end="url(#arr)"/>

<!-- ── ROUTING LAYER ───────────────────────────────────────── -->
<rect x="0" y="358" width="1200" height="154" fill="#E5E3DA"/>
<rect x="0" y="358" width="5" height="154" fill="#378ADD"/>
<text x="600" y="380" text-anchor="middle" font-size="10" font-weight="700" fill="#5F5E5A" letter-spacing="2.5">ROUTING LAYER</text>
<!-- SKILL.md -->
<rect x="20" y="390" width="370" height="88" rx="8" fill="#FFFFFF" stroke="#D3D1C7" stroke-width="0.5"/>
<rect x="20" y="390" width="5" height="88" rx="2" fill="#378ADD"/>
<text x="36" y="410" font-size="9.5" font-weight="700" fill="#185FA5">PRIMARY ROUTER</text>
<text x="36" y="432" font-size="14" font-weight="700" fill="#2C2C2A">SKILL.md</text>
<text x="36" y="452" font-size="9.5" fill="#5F5E5A">100 routing rows · domain tree</text>
<text x="36" y="467" font-size="9.5" fill="#5F5E5A">loading instructions</text>
<!-- routing-table.md (canonical, highlighted) -->
<rect x="410" y="390" width="370" height="88" rx="8" fill="#E6F1FB" stroke="#378ADD" stroke-width="1.5"/>
<rect x="410" y="390" width="5" height="88" rx="2" fill="#185FA5"/>
<text x="426" y="410" font-size="9.5" font-weight="700" fill="#0C447C">CANONICAL TABLE</text>
<text x="426" y="432" font-size="14" font-weight="700" fill="#042C53">routing-table.md</text>
<text x="426" y="452" font-size="9.5" fill="#185FA5">100 rows · 0 orphans · all targets on-disk</text>
<!-- references-index/ -->
<rect x="800" y="390" width="380" height="88" rx="8" fill="#FFFFFF" stroke="#D3D1C7" stroke-width="0.5"/>
<rect x="800" y="390" width="5" height="88" rx="2" fill="#7F77DD"/>
<text x="816" y="410" font-size="9.5" font-weight="700" fill="#534AB7">REFERENCE INDEX</text>
<text x="816" y="432" font-size="14" font-weight="700" fill="#2C2C2A">references-index/</text>
<text x="816" y="452" font-size="9.5" fill="#5F5E5A">legal-research · routing-table · style-guide</text>
<text x="816" y="467" font-size="9.5" fill="#5F5E5A">3 modules</text>

<!-- branching arrows: routing → domain columns -->
<line x1="600" y1="512" x2="600" y2="536" stroke="#888780" stroke-width="2"/>
<line x1="205" y1="536" x2="993" y2="536" stroke="#888780" stroke-width="2"/>
<line x1="205" y1="536" x2="205" y2="560" stroke="#B4B2A9" stroke-width="1.5" marker-end="url(#arr-s)"/>
<line x1="600" y1="536" x2="600" y2="560" stroke="#B4B2A9" stroke-width="1.5" marker-end="url(#arr-s)"/>
<line x1="993" y1="536" x2="993" y2="560" stroke="#B4B2A9" stroke-width="1.5" marker-end="url(#arr-s)"/>

<!-- ── DOMAIN LAYER ────────────────────────────────────────── -->
<rect x="0" y="564" width="1200" height="550" fill="#E5E3DA" fill-opacity="0.6"/>
<rect x="0" y="564" width="5" height="550" fill="#378ADD"/>
<text x="600" y="587" text-anchor="middle" font-size="10" font-weight="700" fill="#5F5E5A" letter-spacing="2.5">DOMAIN LAYER — 71 MODULES ACROSS 16 DOMAINS</text>

<!-- Foundation bar -->
<rect x="20" y="597" width="1160" height="60" rx="8" fill="#FAEEDA" stroke="#FAC775" stroke-width="1"/>
<rect x="20" y="597" width="5" height="60" rx="2" fill="#EF9F27"/>
<text x="36" y="615" font-size="9.5" font-weight="700" fill="#633806">FOUNDATION</text>
<rect x="36" y="619" width="234" height="24" rx="4" fill="#FAC775" fill-opacity="0.5"/>
<text x="46" y="635" font-size="10" font-weight="600" fill="#412402">core/ · 12 modules</text>
<text x="278" y="635" font-size="9.5" fill="#633806">Obligations, RPC, Constitution, Remedial, Crim, NCC…</text>
<rect x="612" y="619" width="214" height="24" rx="4" fill="#FAC775" fill-opacity="0.5"/>
<text x="622" y="635" font-size="10" font-weight="600" fill="#412402">special-laws/ · 7 modules</text>
<text x="834" y="635" font-size="9.5" fill="#633806">Penal, Labor, Drug, Data</text>

<!-- ROW 1: Ph1 | Ph2 | Ph3 — Blue -->
<rect x="20" y="671" width="373" height="68" rx="8" fill="#FFFFFF" stroke="#B5D4F4" stroke-width="0.5"/>
<rect x="20" y="671" width="5" height="68" rx="2" fill="#378ADD"/>
<text x="36" y="690" font-size="9" font-weight="700" fill="#888780">PHASE 1</text>
<rect x="100" y="678" width="64" height="15" rx="7" fill="#E6F1FB"/><text x="132" y="689" text-anchor="middle" font-size="8" font-weight="700" fill="#185FA5">5 modules</text>
<text x="36" y="712" font-size="12.5" font-weight="700" fill="#2C2C2A">Commercial Law</text>
<text x="36" y="728" font-size="9.5" fill="#5F5E5A">Corp Code · Insurance · Banking · Partnership</text>

<rect x="413" y="671" width="373" height="68" rx="8" fill="#FFFFFF" stroke="#B5D4F4" stroke-width="0.5"/>
<rect x="413" y="671" width="5" height="68" rx="2" fill="#378ADD"/>
<text x="429" y="690" font-size="9" font-weight="700" fill="#888780">PHASE 2</text>
<rect x="493" y="678" width="64" height="15" rx="7" fill="#E6F1FB"/><text x="525" y="689" text-anchor="middle" font-size="8" font-weight="700" fill="#185FA5">6 modules</text>
<text x="429" y="712" font-size="12.5" font-weight="700" fill="#2C2C2A">Taxation</text>
<text x="429" y="728" font-size="9.5" fill="#5F5E5A">NIRC · VAT · Estate · Income · LGC · Remedies</text>

<rect x="806" y="671" width="374" height="68" rx="8" fill="#FFFFFF" stroke="#B5D4F4" stroke-width="0.5"/>
<rect x="806" y="671" width="5" height="68" rx="2" fill="#378ADD"/>
<text x="822" y="690" font-size="9" font-weight="700" fill="#888780">PHASE 3</text>
<rect x="890" y="678" width="64" height="15" rx="7" fill="#E6F1FB"/><text x="922" y="689" text-anchor="middle" font-size="8" font-weight="700" fill="#185FA5">4 modules</text>
<text x="822" y="712" font-size="12.5" font-weight="700" fill="#2C2C2A">Property &amp; Land Law</text>
<text x="822" y="728" font-size="9.5" fill="#5F5E5A">PD 1529 · RA 6552 · Agrarian Reform · NCC</text>

<!-- ROW 2: Ph4 | Ph5 | Ph6 — Purple -->
<rect x="20" y="749" width="373" height="68" rx="8" fill="#FFFFFF" stroke="#AFA9EC" stroke-width="0.5"/>
<rect x="20" y="749" width="5" height="68" rx="2" fill="#7F77DD"/>
<text x="36" y="768" font-size="9" font-weight="700" fill="#888780">PHASE 4</text>
<rect x="100" y="756" width="64" height="15" rx="7" fill="#EEEDFE"/><text x="132" y="767" text-anchor="middle" font-size="8" font-weight="700" fill="#534AB7">4 modules</text>
<text x="36" y="790" font-size="12.5" font-weight="700" fill="#2C2C2A">Intellectual Property</text>
<text x="36" y="806" font-size="9.5" fill="#5F5E5A">RA 8293 · Trademark · Copyright · Patents</text>

<rect x="413" y="749" width="373" height="68" rx="8" fill="#FFFFFF" stroke="#AFA9EC" stroke-width="0.5"/>
<rect x="413" y="749" width="5" height="68" rx="2" fill="#7F77DD"/>
<text x="429" y="768" font-size="9" font-weight="700" fill="#888780">PHASE 5</text>
<rect x="493" y="756" width="64" height="15" rx="7" fill="#EEEDFE"/><text x="525" y="767" text-anchor="middle" font-size="8" font-weight="700" fill="#534AB7">5 modules</text>
<text x="429" y="790" font-size="12.5" font-weight="700" fill="#2C2C2A">Environmental Law</text>
<text x="429" y="806" font-size="9.5" fill="#5F5E5A">PD 1586 · EIA · Mining RA 7942 · Forestry</text>

<rect x="806" y="749" width="374" height="68" rx="8" fill="#FFFFFF" stroke="#AFA9EC" stroke-width="0.5"/>
<rect x="806" y="749" width="5" height="68" rx="2" fill="#7F77DD"/>
<text x="822" y="768" font-size="9" font-weight="700" fill="#888780">PHASE 6</text>
<rect x="890" y="756" width="64" height="15" rx="7" fill="#EEEDFE"/><text x="922" y="767" text-anchor="middle" font-size="8" font-weight="700" fill="#534AB7">3 modules</text>
<text x="822" y="790" font-size="12.5" font-weight="700" fill="#2C2C2A">Immigration</text>
<text x="822" y="806" font-size="9.5" fill="#5F5E5A">Commonwealth Act 613 · BI Practice · Visas</text>

<!-- ROW 3: Ph7 | Ph8 | Ph9 — Teal -->
<rect x="20" y="827" width="373" height="68" rx="8" fill="#FFFFFF" stroke="#9FE1CB" stroke-width="0.5"/>
<rect x="20" y="827" width="5" height="68" rx="2" fill="#1D9E75"/>
<text x="36" y="846" font-size="9" font-weight="700" fill="#888780">PHASE 7</text>
<rect x="100" y="834" width="64" height="15" rx="7" fill="#E1F5EE"/><text x="132" y="845" text-anchor="middle" font-size="8" font-weight="700" fill="#0F6E56">4 modules</text>
<text x="36" y="868" font-size="12.5" font-weight="700" fill="#2C2C2A">Alternative Dispute Resolution</text>
<text x="36" y="884" font-size="9.5" fill="#5F5E5A">RA 9285 · Arbitration · KP/Lupon · Mediation</text>

<rect x="413" y="827" width="373" height="68" rx="8" fill="#FFFFFF" stroke="#9FE1CB" stroke-width="0.5"/>
<rect x="413" y="827" width="5" height="68" rx="2" fill="#1D9E75"/>
<text x="429" y="846" font-size="9" font-weight="700" fill="#888780">PHASE 8</text>
<rect x="493" y="834" width="64" height="15" rx="7" fill="#E1F5EE"/><text x="525" y="845" text-anchor="middle" font-size="8" font-weight="700" fill="#0F6E56">3 modules</text>
<text x="429" y="868" font-size="12.5" font-weight="700" fill="#2C2C2A">Exam Tracks</text>
<text x="429" y="884" font-size="9.5" fill="#5F5E5A">Bar Core Map · CPALE Tax · CPALE Commercial</text>

<rect x="806" y="827" width="374" height="68" rx="8" fill="#FFFFFF" stroke="#9FE1CB" stroke-width="0.5"/>
<rect x="806" y="827" width="5" height="68" rx="2" fill="#1D9E75"/>
<text x="822" y="846" font-size="9" font-weight="700" fill="#888780">PHASE 9</text>
<rect x="890" y="834" width="64" height="15" rx="7" fill="#E1F5EE"/><text x="922" y="845" text-anchor="middle" font-size="8" font-weight="700" fill="#0F6E56">5 modules</text>
<text x="822" y="868" font-size="12.5" font-weight="700" fill="#2C2C2A">Civil Law</text>
<text x="822" y="884" font-size="9.5" fill="#5F5E5A">Obligations · Property · Persons · Succession · Torts</text>

<!-- ROW 4: Ph10 | Ph11 | Ph12 — Teal deep -->
<rect x="20" y="905" width="373" height="68" rx="8" fill="#FFFFFF" stroke="#9FE1CB" stroke-width="0.5"/>
<rect x="20" y="905" width="5" height="68" rx="2" fill="#0F6E56"/>
<text x="36" y="924" font-size="9" font-weight="700" fill="#888780">PHASE 10</text>
<rect x="104" y="912" width="58" height="15" rx="7" fill="#E1F5EE"/><text x="133" y="923" text-anchor="middle" font-size="8" font-weight="700" fill="#085041">1 module</text>
<text x="36" y="946" font-size="12.5" font-weight="700" fill="#2C2C2A">Jurisprudence Expansion</text>
<text x="36" y="962" font-size="9.5" fill="#5F5E5A">Cross-domain SC case map · core/jurisprudence.md</text>

<rect x="413" y="905" width="373" height="68" rx="8" fill="#FFFFFF" stroke="#9FE1CB" stroke-width="0.5"/>
<rect x="413" y="905" width="5" height="68" rx="2" fill="#0F6E56"/>
<text x="429" y="924" font-size="9" font-weight="700" fill="#888780">PHASE 11</text>
<rect x="497" y="912" width="64" height="15" rx="7" fill="#E1F5EE"/><text x="529" y="923" text-anchor="middle" font-size="8" font-weight="700" fill="#085041">4 modules</text>
<text x="429" y="946" font-size="12.5" font-weight="700" fill="#2C2C2A">Negotiable Instruments</text>
<text x="429" y="962" font-size="9.5" fill="#5F5E5A">Act No. 2031 · NIL · HDC · Liabilities · Checks</text>

<rect x="806" y="905" width="374" height="68" rx="8" fill="#FFFFFF" stroke="#9FE1CB" stroke-width="0.5"/>
<rect x="806" y="905" width="5" height="68" rx="2" fill="#0F6E56"/>
<text x="822" y="924" font-size="9" font-weight="700" fill="#888780">PHASE 12</text>
<rect x="894" y="912" width="64" height="15" rx="7" fill="#E1F5EE"/><text x="926" y="923" text-anchor="middle" font-size="8" font-weight="700" fill="#085041">2 modules</text>
<text x="822" y="946" font-size="12.5" font-weight="700" fill="#2C2C2A">Legal Ethics</text>
<text x="822" y="962" font-size="9.5" fill="#5F5E5A">CPRA 2023 · IBP Discipline · Notarial Practice</text>

<!-- ROW 5: Ph13 | Ph14 | Legend — Coral -->
<rect x="20" y="983" width="373" height="68" rx="8" fill="#FFFFFF" stroke="#F0997B" stroke-width="1"/>
<rect x="20" y="983" width="5" height="68" rx="2" fill="#D85A30"/>
<text x="36" y="1002" font-size="9" font-weight="700" fill="#888780">PHASE 13</text>
<rect x="100" y="990" width="64" height="15" rx="7" fill="#FAECE7"/><text x="132" y="1001" text-anchor="middle" font-size="8" font-weight="700" fill="#993C1D">1 module</text>
<text x="36" y="1024" font-size="12.5" font-weight="700" fill="#2C2C2A">Financial Regulation</text>
<text x="36" y="1040" font-size="9.5" fill="#5F5E5A">AMLA R.A. 9160 · AMLC · Freeze Orders (CA)</text>

<rect x="413" y="983" width="373" height="68" rx="8" fill="#FFFFFF" stroke="#F0997B" stroke-width="1"/>
<rect x="413" y="983" width="5" height="68" rx="2" fill="#D85A30"/>
<text x="429" y="1002" font-size="9" font-weight="700" fill="#888780">PHASE 14</text>
<rect x="493" y="990" width="64" height="15" rx="7" fill="#FAECE7"/><text x="525" y="1001" text-anchor="middle" font-size="8" font-weight="700" fill="#993C1D">1 module</text>
<text x="429" y="1024" font-size="12.5" font-weight="700" fill="#2C2C2A">Indigenous Peoples</text>
<text x="429" y="1040" font-size="9.5" fill="#5F5E5A">IPRA R.A. 8371 · FPIC · CADT/CALT · NCIP</text>

<!-- Legend tile (col 3, row 5) -->
<rect x="806" y="983" width="374" height="68" rx="8" fill="#EAF3DE" stroke="#97C459" stroke-width="1" stroke-dasharray="5,3"/>
<text x="993" y="1007" text-anchor="middle" font-size="10.5" font-weight="700" fill="#3B6D11">v7.0 OVERRIDE</text>
<text x="993" y="1025" text-anchor="middle" font-size="9.5" fill="#27500A">Phases 12–14 authorized &amp; built</text>
<text x="993" y="1041" text-anchor="middle" font-size="9.5" fill="#27500A">Gate closed · Firm-grade complete</text>

<!-- Color key -->
<circle cx="30" cy="1074" r="5" fill="#378ADD"/><text x="41" y="1079" font-size="9" fill="#5F5E5A">Ph 1–3 Commercial</text>
<circle cx="177" cy="1074" r="5" fill="#7F77DD"/><text x="188" y="1079" font-size="9" fill="#5F5E5A">Ph 4–6 Legal Rights</text>
<circle cx="325" cy="1074" r="5" fill="#1D9E75"/><text x="336" y="1079" font-size="9" fill="#5F5E5A">Ph 7–9 Process</text>
<circle cx="458" cy="1074" r="5" fill="#0F6E56"/><text x="469" y="1079" font-size="9" fill="#5F5E5A">Ph 10–12 Expansion</text>
<circle cx="612" cy="1074" r="5" fill="#D85A30"/><text x="623" y="1079" font-size="9" fill="#5F5E5A">Ph 13–14 New</text>
<circle cx="726" cy="1074" r="5" fill="#EF9F27"/><text x="737" y="1079" font-size="9" fill="#5F5E5A">Foundation</text>

<!-- converging arrows: domain → validation -->
<line x1="205" y1="1114" x2="205" y2="1138" stroke="#B4B2A9" stroke-width="1.5"/>
<line x1="600" y1="1114" x2="600" y2="1138" stroke="#B4B2A9" stroke-width="1.5"/>
<line x1="993" y1="1114" x2="993" y2="1138" stroke="#B4B2A9" stroke-width="1.5"/>
<line x1="205" y1="1138" x2="993" y2="1138" stroke="#B4B2A9" stroke-width="1.5"/>
<line x1="600" y1="1138" x2="600" y2="1156" stroke="#888780" stroke-width="2" marker-end="url(#arr)"/>

<!-- ── VALIDATION LAYER ────────────────────────────────────── -->
<rect x="0" y="1160" width="1200" height="214" fill="#E5E3DA" fill-opacity="0.6"/>
<rect x="0" y="1160" width="5" height="214" fill="#639922"/>
<text x="600" y="1182" text-anchor="middle" font-size="10" font-weight="700" fill="#5F5E5A" letter-spacing="2.5">VALIDATION LAYER — ALL CHECKS PASS</text>

<!-- row 1 -->
<rect x="20" y="1192" width="365" height="68" rx="8" fill="#FFFFFF" stroke="#97C459" stroke-width="1"/>
<circle cx="48" cy="1226" r="14" fill="#3B6D11"/>
<path d="M42 1226L46 1231L55 1220" stroke="#FFFFFF" stroke-width="2" fill="none" stroke-linecap="round"/>
<text x="74" y="1216" font-size="11.5" font-weight="700" fill="#2C2C2A">Routing Validation</text>
<text x="74" y="1232" font-size="9.5" fill="#5F5E5A">100 rows · 0 orphans · synced</text>
<text x="74" y="1248" font-size="9.5" fill="#5F5E5A">routing-table.md ↔ SKILL.md</text>

<rect x="405" y="1192" width="365" height="68" rx="8" fill="#FFFFFF" stroke="#97C459" stroke-width="1"/>
<circle cx="433" cy="1226" r="14" fill="#3B6D11"/>
<path d="M427 1226L431 1231L440 1220" stroke="#FFFFFF" stroke-width="2" fill="none" stroke-linecap="round"/>
<text x="459" y="1216" font-size="11.5" font-weight="700" fill="#2C2C2A">Cross-reference Validation</text>
<text x="459" y="1232" font-size="9.5" fill="#5F5E5A">15 cross-refs in Ph 11–14 · 0 broken</text>
<text x="459" y="1248" font-size="9.5" fill="#5F5E5A">all targets verified on-disk</text>

<rect x="790" y="1192" width="390" height="68" rx="8" fill="#FFFFFF" stroke="#97C459" stroke-width="1"/>
<circle cx="818" cy="1226" r="14" fill="#3B6D11"/>
<path d="M812 1226L816 1231L825 1220" stroke="#FFFFFF" stroke-width="2" fill="none" stroke-linecap="round"/>
<text x="844" y="1216" font-size="11.5" font-weight="700" fill="#2C2C2A">Doctrine Boundary Validation</text>
<text x="844" y="1232" font-size="9.5" fill="#5F5E5A">0 duplications · 1 error patched (AMLC)</text>
<text x="844" y="1248" font-size="9.5" fill="#5F5E5A">AMLA / FPIC / BP22 boundaries clean</text>

<!-- row 2 -->
<rect x="20" y="1270" width="365" height="68" rx="8" fill="#FFFFFF" stroke="#97C459" stroke-width="1"/>
<circle cx="48" cy="1304" r="14" fill="#3B6D11"/>
<path d="M42 1304L46 1309L55 1298" stroke="#FFFFFF" stroke-width="2" fill="none" stroke-linecap="round"/>
<text x="74" y="1294" font-size="11.5" font-weight="700" fill="#2C2C2A">Governance Consistency</text>
<text x="74" y="1310" font-size="9.5" fill="#5F5E5A">8 files synced · v7.0</text>
<text x="74" y="1326" font-size="9.5" fill="#5F5E5A">no stale labels · gate-closed declared</text>

<rect x="405" y="1270" width="365" height="68" rx="8" fill="#FFFFFF" stroke="#97C459" stroke-width="1"/>
<circle cx="433" cy="1304" r="14" fill="#3B6D11"/>
<path d="M427 1304L431 1309L440 1298" stroke="#FFFFFF" stroke-width="2" fill="none" stroke-linecap="round"/>
<text x="459" y="1294" font-size="11.5" font-weight="700" fill="#2C2C2A">SHA256 Verification</text>
<text x="459" y="1310" font-size="9.5" fill="#5F5E5A">36eab248… · stable · recomputed ×2</text>
<text x="459" y="1326" font-size="9.5" fill="#5F5E5A">FCP §2 + §11 · RELEASE-NOTES-v7.0.md</text>

<rect x="790" y="1270" width="390" height="68" rx="8" fill="#FFFFFF" stroke="#97C459" stroke-width="1"/>
<circle cx="818" cy="1304" r="14" fill="#3B6D11"/>
<path d="M812 1304L816 1309L825 1298" stroke="#FFFFFF" stroke-width="2" fill="none" stroke-linecap="round"/>
<text x="844" y="1294" font-size="11.5" font-weight="700" fill="#2C2C2A">Freeze Validation</text>
<text x="844" y="1310" font-size="9.5" fill="#5F5E5A">Phases 1–14 frozen · no open auth</text>
<text x="844" y="1326" font-size="9.5" fill="#5F5E5A">MUST NOT list · 13 guardrails active</text>

<!-- arrow: validation → release -->
<line x1="600" y1="1374" x2="600" y2="1406" stroke="#888780" stroke-width="2" marker-end="url(#arr)"/>

<!-- ── RELEASE LAYER ───────────────────────────────────────── -->
<rect x="0" y="1410" width="1200" height="124" fill="#2C2C2A"/>
<rect x="0" y="1410" width="5" height="124" fill="#EF9F27"/>
<text x="600" y="1432" text-anchor="middle" font-size="10" font-weight="700" fill="#888780" letter-spacing="2.5">RELEASE LAYER</text>
<!-- artifact box -->
<rect x="185" y="1442" width="650" height="52" rx="8" fill="#378ADD"/>
<text x="510" y="1462" text-anchor="middle" font-size="12.5" font-weight="700" fill="#FFFFFF">ph-legal-skill-v3-v7-production.zip</text>
<text x="510" y="1480" text-anchor="middle" font-size="10" fill="#B5D4F4">83 files · 441 K · Artifact SHA256: eb10697027be89bc…</text>
<!-- SHA badge -->
<rect x="20" y="1446" width="154" height="44" rx="22" fill="#444441"/>
<circle cx="46" cy="1468" r="10" fill="#639922"/>
<path d="M41 1468L44 1472L52 1463" stroke="#FFFFFF" stroke-width="1.5" fill="none" stroke-linecap="round"/>
<text x="96" y="1464" text-anchor="middle" font-size="10" font-weight="600" fill="#F1EFE8">Content</text>
<text x="96" y="1480" text-anchor="middle" font-size="9.5" fill="#888780">SHA256 locked</text>
<!-- gate closed badge -->
<rect x="1026" y="1446" width="154" height="44" rx="22" fill="#444441"/>
<rect x="1049" y="1460" width="18" height="14" rx="2" fill="#EF9F27"/>
<path d="M1051 1460L1051 1455A8 8 0 0 1 1065 1455L1065 1460" stroke="#EF9F27" stroke-width="2" fill="none"/>
<text x="1103" y="1464" text-anchor="middle" font-size="10" font-weight="600" fill="#F1EFE8">Governance</text>
<text x="1103" y="1480" text-anchor="middle" font-size="9.5" fill="#888780">gate closed</text>
<!-- footer -->
<text x="600" y="1524" text-anchor="middle" font-size="10" fill="#888780">v7.0 · 2026-06-20 · Phases 1–14 Production-Certified · Firm-Grade Hardening Complete</text>
</svg>
